<mxfile host="Electron" modified="2025-02-10T21:50:00.439Z" agent="Mozilla/5.0 (Windows NT 10.0; Win64; x64) AppleWebKit/537.36 (KHTML, like Gecko) draw.io/22.1.2 Chrome/114.0.5735.289 Electron/25.9.4 Safari/537.36" etag="nIwVlKPRTxkG5vi7_o-8" version="22.1.2" type="device">
  <diagram name="Страница — 1" id="u5Vb9STpN1MHXqtXTWEe">
    <mxGraphModel dx="1887" dy="1280" grid="1" gridSize="10" guides="1" tooltips="1" connect="1" arrows="1" fold="1" page="1" pageScale="1" pageWidth="827" pageHeight="1169" math="0" shadow="0">
      <root>
        <mxCell id="0" />
        <mxCell id="1" parent="0" />
        <mxCell id="zOTMHZjMReySTRDyNREn-4" style="edgeStyle=orthogonalEdgeStyle;rounded=0;orthogonalLoop=1;jettySize=auto;html=1;exitX=0.5;exitY=0;exitDx=0;exitDy=0;" edge="1" parent="1" source="zOTMHZjMReySTRDyNREn-2">
          <mxGeometry relative="1" as="geometry">
            <mxPoint x="80" y="170" as="targetPoint" />
          </mxGeometry>
        </mxCell>
        <mxCell id="zOTMHZjMReySTRDyNREn-5" style="edgeStyle=orthogonalEdgeStyle;rounded=0;orthogonalLoop=1;jettySize=auto;html=1;exitX=0.5;exitY=0;exitDx=0;exitDy=0;" edge="1" parent="1" source="zOTMHZjMReySTRDyNREn-2">
          <mxGeometry relative="1" as="geometry">
            <mxPoint x="250" y="170" as="targetPoint" />
          </mxGeometry>
        </mxCell>
        <mxCell id="zOTMHZjMReySTRDyNREn-6" style="edgeStyle=orthogonalEdgeStyle;rounded=0;orthogonalLoop=1;jettySize=auto;html=1;exitX=0.5;exitY=0;exitDx=0;exitDy=0;" edge="1" parent="1" source="zOTMHZjMReySTRDyNREn-2">
          <mxGeometry relative="1" as="geometry">
            <mxPoint x="420" y="170" as="targetPoint" />
          </mxGeometry>
        </mxCell>
        <mxCell id="zOTMHZjMReySTRDyNREn-18" style="edgeStyle=orthogonalEdgeStyle;rounded=0;orthogonalLoop=1;jettySize=auto;html=1;exitX=1;exitY=0.5;exitDx=0;exitDy=0;" edge="1" parent="1" source="zOTMHZjMReySTRDyNREn-2">
          <mxGeometry relative="1" as="geometry">
            <mxPoint x="640" y="240" as="targetPoint" />
          </mxGeometry>
        </mxCell>
        <mxCell id="zOTMHZjMReySTRDyNREn-24" style="edgeStyle=orthogonalEdgeStyle;rounded=0;orthogonalLoop=1;jettySize=auto;html=1;exitX=0.5;exitY=1;exitDx=0;exitDy=0;" edge="1" parent="1" source="zOTMHZjMReySTRDyNREn-2">
          <mxGeometry relative="1" as="geometry">
            <mxPoint x="640" y="500" as="targetPoint" />
            <Array as="points">
              <mxPoint x="250" y="500" />
            </Array>
          </mxGeometry>
        </mxCell>
        <mxCell id="zOTMHZjMReySTRDyNREn-32" style="edgeStyle=orthogonalEdgeStyle;rounded=0;orthogonalLoop=1;jettySize=auto;html=1;exitX=0.25;exitY=1;exitDx=0;exitDy=0;" edge="1" parent="1">
          <mxGeometry relative="1" as="geometry">
            <mxPoint x="739.9999999999999" y="870.0000000000001" as="targetPoint" />
            <mxPoint x="195" y="450" as="sourcePoint" />
            <Array as="points">
              <mxPoint x="195" y="810" />
              <mxPoint x="740" y="810" />
            </Array>
          </mxGeometry>
        </mxCell>
        <mxCell id="zOTMHZjMReySTRDyNREn-2" value="" style="rounded=0;whiteSpace=wrap;html=1;" vertex="1" parent="1">
          <mxGeometry x="140" y="340" width="220" height="100" as="geometry" />
        </mxCell>
        <mxCell id="zOTMHZjMReySTRDyNREn-3" value="Ардуино" style="text;html=1;strokeColor=none;fillColor=none;align=center;verticalAlign=middle;whiteSpace=wrap;rounded=0;" vertex="1" parent="1">
          <mxGeometry x="170" y="360" width="160" height="60" as="geometry" />
        </mxCell>
        <mxCell id="zOTMHZjMReySTRDyNREn-9" value="" style="ellipse;whiteSpace=wrap;html=1;aspect=fixed;" vertex="1" parent="1">
          <mxGeometry x="380" y="100" width="80" height="80" as="geometry" />
        </mxCell>
        <mxCell id="zOTMHZjMReySTRDyNREn-10" value="" style="ellipse;whiteSpace=wrap;html=1;aspect=fixed;" vertex="1" parent="1">
          <mxGeometry x="40" y="100" width="80" height="80" as="geometry" />
        </mxCell>
        <mxCell id="zOTMHZjMReySTRDyNREn-11" value="" style="ellipse;whiteSpace=wrap;html=1;aspect=fixed;" vertex="1" parent="1">
          <mxGeometry x="210" y="100" width="80" height="80" as="geometry" />
        </mxCell>
        <mxCell id="zOTMHZjMReySTRDyNREn-12" value="Помпа" style="text;html=1;strokeColor=none;fillColor=none;align=center;verticalAlign=middle;whiteSpace=wrap;rounded=0;" vertex="1" parent="1">
          <mxGeometry x="50" y="125" width="60" height="30" as="geometry" />
        </mxCell>
        <mxCell id="zOTMHZjMReySTRDyNREn-15" value="Помпа" style="text;html=1;strokeColor=none;fillColor=none;align=center;verticalAlign=middle;whiteSpace=wrap;rounded=0;" vertex="1" parent="1">
          <mxGeometry x="220" y="125" width="60" height="30" as="geometry" />
        </mxCell>
        <mxCell id="zOTMHZjMReySTRDyNREn-17" value="Помпа" style="text;html=1;strokeColor=none;fillColor=none;align=center;verticalAlign=middle;whiteSpace=wrap;rounded=0;" vertex="1" parent="1">
          <mxGeometry x="390" y="125" width="60" height="30" as="geometry" />
        </mxCell>
        <mxCell id="zOTMHZjMReySTRDyNREn-23" value="Дисплей" style="shape=process;whiteSpace=wrap;html=1;backgroundOutline=1;" vertex="1" parent="1">
          <mxGeometry x="580" y="170" width="120" height="80" as="geometry" />
        </mxCell>
        <mxCell id="zOTMHZjMReySTRDyNREn-26" value="" style="endArrow=classic;html=1;rounded=0;" edge="1" parent="1">
          <mxGeometry width="50" height="50" relative="1" as="geometry">
            <mxPoint x="560" y="500" as="sourcePoint" />
            <mxPoint x="640" y="680" as="targetPoint" />
            <Array as="points">
              <mxPoint x="560" y="680" />
            </Array>
          </mxGeometry>
        </mxCell>
        <mxCell id="zOTMHZjMReySTRDyNREn-28" value="" style="endArrow=classic;html=1;rounded=0;" edge="1" parent="1">
          <mxGeometry width="50" height="50" relative="1" as="geometry">
            <mxPoint x="560" y="590" as="sourcePoint" />
            <mxPoint x="640" y="590" as="targetPoint" />
          </mxGeometry>
        </mxCell>
        <mxCell id="zOTMHZjMReySTRDyNREn-29" value="Тензодатчик" style="shape=trapezoid;perimeter=trapezoidPerimeter;whiteSpace=wrap;html=1;fixedSize=1;" vertex="1" parent="1">
          <mxGeometry x="610" y="480" width="130" height="50" as="geometry" />
        </mxCell>
        <mxCell id="zOTMHZjMReySTRDyNREn-30" value="Тензодатчик" style="shape=trapezoid;perimeter=trapezoidPerimeter;whiteSpace=wrap;html=1;fixedSize=1;" vertex="1" parent="1">
          <mxGeometry x="610" y="570" width="130" height="50" as="geometry" />
        </mxCell>
        <mxCell id="zOTMHZjMReySTRDyNREn-31" value="Тензодатчик" style="shape=trapezoid;perimeter=trapezoidPerimeter;whiteSpace=wrap;html=1;fixedSize=1;" vertex="1" parent="1">
          <mxGeometry x="605" y="650" width="140" height="50" as="geometry" />
        </mxCell>
        <mxCell id="zOTMHZjMReySTRDyNREn-35" value="Кнопка" style="ellipse;whiteSpace=wrap;html=1;" vertex="1" parent="1">
          <mxGeometry x="170" y="860" width="60" height="50" as="geometry" />
        </mxCell>
        <mxCell id="zOTMHZjMReySTRDyNREn-38" value="Кнопка" style="ellipse;whiteSpace=wrap;html=1;" vertex="1" parent="1">
          <mxGeometry x="260" y="860" width="60" height="50" as="geometry" />
        </mxCell>
        <mxCell id="zOTMHZjMReySTRDyNREn-39" value="Кнопка" style="ellipse;whiteSpace=wrap;html=1;" vertex="1" parent="1">
          <mxGeometry x="354" y="860" width="60" height="50" as="geometry" />
        </mxCell>
        <mxCell id="zOTMHZjMReySTRDyNREn-40" value="Кнопка" style="ellipse;whiteSpace=wrap;html=1;" vertex="1" parent="1">
          <mxGeometry x="450" y="860" width="60" height="50" as="geometry" />
        </mxCell>
        <mxCell id="zOTMHZjMReySTRDyNREn-41" value="Кнопка" style="ellipse;whiteSpace=wrap;html=1;" vertex="1" parent="1">
          <mxGeometry x="540" y="860" width="60" height="50" as="geometry" />
        </mxCell>
        <mxCell id="zOTMHZjMReySTRDyNREn-42" value="Кнопка" style="ellipse;whiteSpace=wrap;html=1;" vertex="1" parent="1">
          <mxGeometry x="625" y="860" width="60" height="50" as="geometry" />
        </mxCell>
        <mxCell id="zOTMHZjMReySTRDyNREn-43" value="Кнопка" style="ellipse;whiteSpace=wrap;html=1;" vertex="1" parent="1">
          <mxGeometry x="80" y="860" width="60" height="50" as="geometry" />
        </mxCell>
        <mxCell id="zOTMHZjMReySTRDyNREn-44" value="Кнопка" style="ellipse;whiteSpace=wrap;html=1;" vertex="1" parent="1">
          <mxGeometry x="710" y="860" width="60" height="50" as="geometry" />
        </mxCell>
        <mxCell id="zOTMHZjMReySTRDyNREn-53" value="" style="endArrow=none;html=1;rounded=0;entryX=0.5;entryY=0;entryDx=0;entryDy=0;" edge="1" parent="1" target="zOTMHZjMReySTRDyNREn-42">
          <mxGeometry width="50" height="50" relative="1" as="geometry">
            <mxPoint x="655" y="810" as="sourcePoint" />
            <mxPoint x="580" y="740" as="targetPoint" />
          </mxGeometry>
        </mxCell>
        <mxCell id="zOTMHZjMReySTRDyNREn-54" value="" style="endArrow=none;html=1;rounded=0;entryX=0.5;entryY=0;entryDx=0;entryDy=0;" edge="1" parent="1">
          <mxGeometry width="50" height="50" relative="1" as="geometry">
            <mxPoint x="569.78" y="810" as="sourcePoint" />
            <mxPoint x="569.78" y="860" as="targetPoint" />
          </mxGeometry>
        </mxCell>
        <mxCell id="zOTMHZjMReySTRDyNREn-55" value="" style="endArrow=none;html=1;rounded=0;entryX=0.5;entryY=0;entryDx=0;entryDy=0;" edge="1" parent="1">
          <mxGeometry width="50" height="50" relative="1" as="geometry">
            <mxPoint x="479.78" y="810" as="sourcePoint" />
            <mxPoint x="479.78" y="860" as="targetPoint" />
          </mxGeometry>
        </mxCell>
        <mxCell id="zOTMHZjMReySTRDyNREn-56" value="" style="endArrow=none;html=1;rounded=0;entryX=0.5;entryY=0;entryDx=0;entryDy=0;" edge="1" parent="1">
          <mxGeometry width="50" height="50" relative="1" as="geometry">
            <mxPoint x="380" y="810" as="sourcePoint" />
            <mxPoint x="380" y="860" as="targetPoint" />
          </mxGeometry>
        </mxCell>
        <mxCell id="zOTMHZjMReySTRDyNREn-57" value="" style="endArrow=none;html=1;rounded=0;entryX=0.5;entryY=0;entryDx=0;entryDy=0;" edge="1" parent="1">
          <mxGeometry width="50" height="50" relative="1" as="geometry">
            <mxPoint x="290" y="810" as="sourcePoint" />
            <mxPoint x="290" y="860" as="targetPoint" />
          </mxGeometry>
        </mxCell>
        <mxCell id="zOTMHZjMReySTRDyNREn-58" value="" style="endArrow=none;html=1;rounded=0;entryX=0.5;entryY=0;entryDx=0;entryDy=0;" edge="1" parent="1">
          <mxGeometry width="50" height="50" relative="1" as="geometry">
            <mxPoint x="200" y="810" as="sourcePoint" />
            <mxPoint x="200" y="860" as="targetPoint" />
          </mxGeometry>
        </mxCell>
        <mxCell id="zOTMHZjMReySTRDyNREn-61" value="" style="endArrow=none;html=1;rounded=0;" edge="1" parent="1">
          <mxGeometry width="50" height="50" relative="1" as="geometry">
            <mxPoint x="110" y="810" as="sourcePoint" />
            <mxPoint x="200" y="810" as="targetPoint" />
          </mxGeometry>
        </mxCell>
        <mxCell id="zOTMHZjMReySTRDyNREn-62" value="" style="endArrow=none;html=1;rounded=0;exitX=0.5;exitY=0;exitDx=0;exitDy=0;" edge="1" parent="1" source="zOTMHZjMReySTRDyNREn-43">
          <mxGeometry width="50" height="50" relative="1" as="geometry">
            <mxPoint x="170" y="830" as="sourcePoint" />
            <mxPoint x="110" y="810" as="targetPoint" />
          </mxGeometry>
        </mxCell>
      </root>
    </mxGraphModel>
  </diagram>
</mxfile>
